<?xml version="1.0" encoding="utf-8"?>
<!-- Generator: Adobe Illustrator 23.0.2, SVG Export Plug-In . SVG Version: 6.00 Build 0)  -->
<svg version="1.1" id="Capa_1" xmlns="http://www.w3.org/2000/svg" xmlns:xlink="http://www.w3.org/1999/xlink" x="0px" y="0px"
	 viewBox="0 0 512 512" style="enable-background:new 0 0 512 512;" xml:space="preserve">
<style type="text/css">
	.st0{fill:#CCEBF8;}
</style>
<g>
	<path class="st0" d="M471.4,380.1c-3.5-2.2-8.2-1.1-10.4,2.4c-21.2,34.3-50.9,63-86,82.9c-36.1,20.6-77.3,31.4-119.1,31.4
		c-88.6,0-169.8-48.4-212-126.4c-2-3.7-6.5-5-10.2-3s-5,6.5-3,10.2C75.6,460.5,161.9,512,256,512c44.4,0,88.2-11.6,126.5-33.4
		c37.2-21.2,68.8-51.6,91.3-88.1C476,387,474.9,382.3,471.4,380.1L471.4,380.1z"/>
	<path class="st0" d="M31,342.2c-10.6-27.5-15.9-56.5-15.9-86.2c0-54.8,18.9-108.5,53.3-151.1c2.6-3.2,2.1-8-1.1-10.6
		s-8-2.1-10.6,1.1c-18,22.3-32,47.2-41.6,74C5.1,197.1,0,226.3,0,256c0,31.5,5.7,62.4,16.9,91.6c1.1,3,4,4.8,7,4.8
		c0.9,0,1.8-0.2,2.7-0.5C30.5,350.5,32.5,346.1,31,342.2z"/>
	<path class="st0" d="M437,75C388.7,26.6,324.4,0,256,0C189.7,0,126.9,25.2,79,71c-3,2.9-3.1,7.6-0.2,10.6s7.6,3.1,10.6,0.2
		c45-43.1,104.2-66.9,166.6-66.9c64.4,0,124.9,25.1,170.4,70.6s70.6,106,70.6,170.4c0,34.5-7.2,67.9-21.3,99.1
		c-1.7,3.8,0,8.2,3.8,10c1,0.5,2.1,0.7,3.1,0.7c2.9,0,5.6-1.6,6.9-4.4c15-33.2,22.6-68.6,22.6-105.3C512,187.6,485.4,123.3,437,75
		L437,75z"/>
	<path class="st0" d="M171.7,303c-1.5-3.9-5.8-5.9-9.7-4.4s-5.9,5.8-4.4,9.7C165,328,178,344.9,195.3,357
		c17.7,12.5,38.5,19.1,60.2,19.1s42.5-6.6,60.2-19.1c17.3-12.2,30.3-29,37.7-48.7c1.5-3.9-0.5-8.2-4.4-9.7s-8.2,0.5-9.7,4.4
		c-13,34.7-46.7,58-83.8,58S184.8,337.7,171.7,303L171.7,303z"/>
	<path class="st0" d="M165.3,175c-25.1,0-45.5,20.4-45.5,45.5c0,4.2,3.4,7.5,7.5,7.5c4.2,0,7.5-3.4,7.5-7.5
		c0-16.8,13.6-30.4,30.4-30.4s30.4,13.6,30.4,30.4c0,4.2,3.4,7.5,7.5,7.5c4.2,0,7.5-3.4,7.5-7.5C210.8,195.4,190.4,175,165.3,175z"
		/>
	<path class="st0" d="M316.3,220.5c0-16.8,13.6-30.4,30.4-30.4s30.4,13.6,30.4,30.4c0,4.2,3.4,7.5,7.5,7.5c4.2,0,7.5-3.4,7.5-7.5
		c0-25.1-20.4-45.5-45.5-45.5s-45.5,20.4-45.5,45.5c0,4.2,3.4,7.5,7.5,7.5C312.9,228,316.3,224.7,316.3,220.5z"/>
	<path class="st0" d="M63.4,249.9c-3.9-1.4-8.2,0.7-9.6,4.7l-11.1,32.1c-1.4,3.9,0.7,8.2,4.7,9.6c0.8,0.3,1.6,0.4,2.5,0.4
		c3.1,0,6-2,7.1-5.1l11.1-32.1C69.5,255.5,67.4,251.2,63.4,249.9L63.4,249.9z"/>
	<path class="st0" d="M84.7,296.6c3.1,0,6-2,7.1-5.1l11.1-32.1c1.4-3.9-0.7-8.2-4.7-9.6c-3.9-1.4-8.2,0.7-9.6,4.7l-11.1,32.1
		c-1.4,3.9,0.7,8.2,4.7,9.6C83.1,296.5,83.9,296.6,84.7,296.6L84.7,296.6z"/>
	<path class="st0" d="M416.2,296.6c3.1,0,6-2,7.1-5.1l11.1-32.1c1.4-3.9-0.7-8.2-4.7-9.6c-3.9-1.4-8.2,0.7-9.6,4.7L409,286.6
		c-1.4,3.9,0.7,8.2,4.7,9.6C414.5,296.5,415.4,296.6,416.2,296.6L416.2,296.6z"/>
	<path class="st0" d="M451,296.6c3.1,0,6-2,7.1-5.1l11.1-32.1c1.4-3.9-0.7-8.2-4.7-9.6c-3.9-1.4-8.2,0.7-9.6,4.7l-11.1,32.1
		c-1.4,3.9,0.7,8.2,4.7,9.6C449.4,296.5,450.2,296.6,451,296.6L451,296.6z"/>
</g>
</svg>
